<svg xmlns="http://www.w3.org/2000/svg" x="0px" y="0px" width="50" height="50" viewBox="0,0,256,256"
style="fill:#000000;">
<g fill="#0f172a" fill-rule="nonzero" stroke="none" stroke-width="1" stroke-linecap="butt" stroke-linejoin="miter" stroke-miterlimit="10" stroke-dasharray="" stroke-dashoffset="0" font-family="none" font-weight="none" font-size="none" text-anchor="none" style="mix-blend-mode: normal"><path d="M0,256v-256h256v256z" id="bgRectangle"></path></g><g fill="#ffffff" fill-rule="nonzero" stroke="none" stroke-width="1" stroke-linecap="butt" stroke-linejoin="miter" stroke-miterlimit="10" stroke-dasharray="" stroke-dashoffset="0" font-family="none" font-weight="none" font-size="none" text-anchor="none" style="mix-blend-mode: normal"><g transform="scale(5.12,5.12)"><path d="M4,0v48h17c0.35938,0.00391 0.69531,-0.18359 0.87891,-0.49609c0.17969,-0.3125 0.17969,-0.69531 0,-1.00781c-0.18359,-0.3125 -0.51953,-0.5 -0.87891,-0.49609h-15v-44h18v14h14v11c-0.00391,0.35938 0.18359,0.69531 0.49609,0.87891c0.3125,0.17969 0.69531,0.17969 1.00781,0c0.3125,-0.18359 0.5,-0.51953 0.49609,-0.87891v-12.40625l-0.28125,-0.3125l-14,-14l-0.3125,-0.28125zM26,3.4375l10.5625,10.5625h-10.5625zM45.90625,24.90625c-1.05078,0 -2.10547,0.38672 -2.90625,1.1875l-0.6875,0.71875l0.03125,0.03125l-15.4375,15.4375c-0.12891,0.11719 -0.22656,0.26953 -0.28125,0.4375l-1.6875,6c-0.10156,0.34766 -0.01172,0.72266 0.24219,0.98438c0.25391,0.25781 0.625,0.35938 0.97656,0.26563l6,-1.59375c0.16797,-0.05469 0.32031,-0.15234 0.4375,-0.28125l15.8125,-15.6875c0.125,-0.10937 0.22266,-0.25 0.28125,-0.40625l0.125,-0.09375c1.60156,-1.60156 1.60156,-4.21094 0,-5.8125c-0.80078,-0.80078 -1.85547,-1.1875 -2.90625,-1.1875zM43.75,28.25l3,3l-15.34375,15.25l-2.9375,-2.84375l0.03125,-0.125z"></path></g></g>
</svg>