<svg xmlns="http://www.w3.org/2000/svg" x="0px" y="0px" width="48" height="48" viewBox="0 0 48 48">
<linearGradient id="DIL4YXqTpzKGN6Y0goToWa_FnCPHMRRKpyL_gr1" x1="2.315" x2="27.991" y1="21.22" y2="46.895" gradientUnits="userSpaceOnUse"><stop offset="0" stop-color="#f9f9f9"></stop><stop offset="1" stop-color="#c2c8cc"></stop></linearGradient><path fill="url(#DIL4YXqTpzKGN6Y0goToWa_FnCPHMRRKpyL_gr1)" d="M12.16,21l-1.726,1.726c-0.511,0.511-0.874,1.151-1.051,1.852l-2.196,8.723L9.5,38.5 l5.183,2.304l8.727-2.197c0.701-0.177,1.341-0.54,1.853-1.051L27,35.81L12.16,21z"></path><linearGradient id="DIL4YXqTpzKGN6Y0goToWb_FnCPHMRRKpyL_gr2" x1="4.389" x2="11.881" y1="36.103" y2="43.595" gradientUnits="userSpaceOnUse"><stop offset="0" stop-color="#787878"></stop><stop offset="1" stop-color="#666"></stop></linearGradient><path fill="url(#DIL4YXqTpzKGN6Y0goToWb_FnCPHMRRKpyL_gr2)" d="M7.189,33.302l-2.117,8.396c-0.185,0.734,0.48,1.399,1.214,1.214l8.393-2.116L7.189,33.302z"></path><path fill="#edbe00" d="M30.16,3L10.81,22.35C12.674,23.077,14,24.879,14,27c0,0,0,0.224,0,0.5c0,0.276,0.224,0.5,0.5,0.5 s0.5,0,0.5,0c2.761,0,5,2.239,5,5l0,0h0c0,0,0,0.224,0,0.5c0,0.276,0.224,0.5,0.5,0.5c0.276,0,0.5,0,0.5,0v0 c2.116,0,3.914,1.319,4.645,3.175L45,17.81L30.16,3z"></path><linearGradient id="DIL4YXqTpzKGN6Y0goToWc_FnCPHMRRKpyL_gr3" x1="25.22" x2="19.442" y1="18.489" y2="12.711" gradientUnits="userSpaceOnUse"><stop offset="0" stop-color="#fede00"></stop><stop offset="1" stop-color="#ffd000"></stop></linearGradient><path fill="url(#DIL4YXqTpzKGN6Y0goToWc_FnCPHMRRKpyL_gr3)" d="M14.146,27.854L34.584,7.416L30.16,3L10.81,22.35C12.674,23.077,14,24.879,14,27 c0,0,0,0.224,0,0.5C14,27.638,14.056,27.763,14.146,27.854z"></path><linearGradient id="DIL4YXqTpzKGN6Y0goToWd_FnCPHMRRKpyL_gr4" x1="34.781" x2="14.864" y1="28.039" y2="8.123" gradientUnits="userSpaceOnUse"><stop offset="0" stop-color="#eba601"></stop><stop offset="1" stop-color="#c18310"></stop></linearGradient><path fill="url(#DIL4YXqTpzKGN6Y0goToWd_FnCPHMRRKpyL_gr4)" d="M20.146,33.854C20.237,33.944,20.362,34,20.5,34c0.276,0,0.5,0,0.5,0v0 c2.116,0,3.914,1.319,4.645,3.175L45,17.81l-4.409-4.401L20.146,33.854z"></path>
</svg>