<svg xmlns="http://www.w3.org/2000/svg" x="0px" y="0px" width="25" height="25" viewBox="0,0,256,256"
style="fill:#000000;">
<g fill="#2563eb" fill-rule="nonzero" stroke="none" stroke-width="1" stroke-linecap="butt" stroke-linejoin="miter" stroke-miterlimit="10" stroke-dasharray="" stroke-dashoffset="0" font-family="none" font-weight="none" font-size="none" text-anchor="none" style="mix-blend-mode: normal"><path d="M0,256v-256h256v256z" id="bgRectangle"></path></g><g fill="#ffffff" fill-rule="nonzero" stroke="none" stroke-width="1" stroke-linecap="butt" stroke-linejoin="miter" stroke-miterlimit="10" stroke-dasharray="" stroke-dashoffset="0" font-family="none" font-weight="none" font-size="none" text-anchor="none" style="mix-blend-mode: normal"><g transform="scale(5.12,5.12)"><path d="M42.90625,2.90625c-1.10547,0 -2.13672,0.41797 -2.90625,1.1875l-0.8125,0.8125h-0.03125c-0.20312,-0.10547 -0.43359,-0.13672 -0.65625,-0.09375c-0.19141,0.04297 -0.36328,0.14063 -0.5,0.28125l-31.40625,31.40625c-0.01172,0.01953 -0.02344,0.04297 -0.03125,0.0625c-0.07812,0.08203 -0.14062,0.17578 -0.1875,0.28125l-3.3125,8.8125c-0.13281,0.36328 -0.04297,0.77344 0.23438,1.04688c0.27344,0.27734 0.68359,0.36719 1.04688,0.23438l8.8125,-3.3125c0.10547,-0.04687 0.19922,-0.10937 0.28125,-0.1875c0.01953,-0.01562 0.04297,-0.01562 0.0625,-0.03125l31.40625,-31.40625c0.33594,-0.34766 0.37891,-0.88672 0.09375,-1.28125l0.8125,-0.8125c1.60547,-1.60156 1.60547,-4.21094 0,-5.8125c-0.76953,-0.76953 -1.80078,-1.1875 -2.90625,-1.1875zM38.6875,7.1875l4.125,4.125l-3.3125,3.28125l-4.09375,-4.09375zM8.0625,38.0625l0.9375,0.9375h2v2l0.9375,0.9375l-4.84375,1.84375l-0.875,-0.875z"></path></g></g>
</svg>